<mxfile host="Electron" agent="Mozilla/5.0 (Macintosh; Intel Mac OS X 10_15_7) AppleWebKit/537.36 (KHTML, like Gecko) draw.io/24.7.17 Chrome/128.0.6613.36 Electron/32.0.1 Safari/537.36" version="24.7.17">
  <diagram name="Page-1" id="MKmFsS1CKzq2MJ8HZLK6">
    <mxGraphModel dx="1114" dy="868" grid="1" gridSize="10" guides="1" tooltips="1" connect="1" arrows="1" fold="1" page="1" pageScale="1" pageWidth="827" pageHeight="1169" math="0" shadow="0">
      <root>
        <mxCell id="0" />
        <mxCell id="1" parent="0" />
        <mxCell id="CzoYS67WZs6YstitJpSj-1" style="rounded=0;orthogonalLoop=1;jettySize=auto;html=1;entryX=0;entryY=0.5;entryDx=0;entryDy=0;" parent="1" source="CzoYS67WZs6YstitJpSj-6" target="CzoYS67WZs6YstitJpSj-13" edge="1">
          <mxGeometry relative="1" as="geometry" />
        </mxCell>
        <mxCell id="CzoYS67WZs6YstitJpSj-2" style="rounded=0;orthogonalLoop=1;jettySize=auto;html=1;" parent="1" source="CzoYS67WZs6YstitJpSj-6" target="CzoYS67WZs6YstitJpSj-15" edge="1">
          <mxGeometry relative="1" as="geometry" />
        </mxCell>
        <mxCell id="CzoYS67WZs6YstitJpSj-3" style="rounded=0;orthogonalLoop=1;jettySize=auto;html=1;entryX=0.025;entryY=0.5;entryDx=0;entryDy=0;entryPerimeter=0;" parent="1" source="CzoYS67WZs6YstitJpSj-6" target="CzoYS67WZs6YstitJpSj-20" edge="1">
          <mxGeometry relative="1" as="geometry" />
        </mxCell>
        <mxCell id="CzoYS67WZs6YstitJpSj-4" style="rounded=0;orthogonalLoop=1;jettySize=auto;html=1;" parent="1" source="CzoYS67WZs6YstitJpSj-6" target="CzoYS67WZs6YstitJpSj-21" edge="1">
          <mxGeometry relative="1" as="geometry" />
        </mxCell>
        <mxCell id="CzoYS67WZs6YstitJpSj-5" style="rounded=0;orthogonalLoop=1;jettySize=auto;html=1;entryX=0;entryY=0.5;entryDx=0;entryDy=0;" parent="1" source="CzoYS67WZs6YstitJpSj-6" target="CzoYS67WZs6YstitJpSj-23" edge="1">
          <mxGeometry relative="1" as="geometry" />
        </mxCell>
        <mxCell id="CzoYS67WZs6YstitJpSj-6" value="User" style="shape=umlActor;verticalLabelPosition=bottom;verticalAlign=top;html=1;outlineConnect=0;" parent="1" vertex="1">
          <mxGeometry x="80" y="200" width="30" height="60" as="geometry" />
        </mxCell>
        <mxCell id="CzoYS67WZs6YstitJpSj-7" style="rounded=0;orthogonalLoop=1;jettySize=auto;html=1;" parent="1" source="CzoYS67WZs6YstitJpSj-9" target="CzoYS67WZs6YstitJpSj-14" edge="1">
          <mxGeometry relative="1" as="geometry" />
        </mxCell>
        <mxCell id="CzoYS67WZs6YstitJpSj-8" style="rounded=0;orthogonalLoop=1;jettySize=auto;html=1;entryX=0;entryY=0.5;entryDx=0;entryDy=0;" parent="1" source="CzoYS67WZs6YstitJpSj-9" target="CzoYS67WZs6YstitJpSj-19" edge="1">
          <mxGeometry relative="1" as="geometry" />
        </mxCell>
        <mxCell id="CzoYS67WZs6YstitJpSj-9" value="diagnosisEvaluator" style="shape=umlActor;verticalLabelPosition=bottom;verticalAlign=top;html=1;outlineConnect=0;" parent="1" vertex="1">
          <mxGeometry x="90" y="590" width="30" height="60" as="geometry" />
        </mxCell>
        <mxCell id="CzoYS67WZs6YstitJpSj-10" value="" style="swimlane;startSize=0;" parent="1" vertex="1">
          <mxGeometry x="180" y="80" width="490" height="770" as="geometry" />
        </mxCell>
        <mxCell id="CzoYS67WZs6YstitJpSj-11" style="edgeStyle=orthogonalEdgeStyle;rounded=0;orthogonalLoop=1;jettySize=auto;html=1;" parent="CzoYS67WZs6YstitJpSj-10" source="CzoYS67WZs6YstitJpSj-13" target="CzoYS67WZs6YstitJpSj-16" edge="1">
          <mxGeometry relative="1" as="geometry" />
        </mxCell>
        <mxCell id="CzoYS67WZs6YstitJpSj-12" value="&amp;lt;&amp;lt;include&amp;gt;&amp;gt;" style="edgeLabel;html=1;align=center;verticalAlign=middle;resizable=0;points=[];" parent="CzoYS67WZs6YstitJpSj-11" connectable="0" vertex="1">
          <mxGeometry x="-0.1846" y="1" relative="1" as="geometry">
            <mxPoint as="offset" />
          </mxGeometry>
        </mxCell>
        <mxCell id="CzoYS67WZs6YstitJpSj-13" value="sign up for account" style="ellipse;whiteSpace=wrap;html=1;" parent="CzoYS67WZs6YstitJpSj-10" vertex="1">
          <mxGeometry x="45" y="30" width="120" height="80" as="geometry" />
        </mxCell>
        <mxCell id="CzoYS67WZs6YstitJpSj-14" value="match symptoms to diseases" style="ellipse;whiteSpace=wrap;html=1;" parent="CzoYS67WZs6YstitJpSj-10" vertex="1">
          <mxGeometry x="70" y="470" width="120" height="80" as="geometry" />
        </mxCell>
        <mxCell id="CzoYS67WZs6YstitJpSj-15" value="Input symptoms" style="ellipse;whiteSpace=wrap;html=1;" parent="CzoYS67WZs6YstitJpSj-10" vertex="1">
          <mxGeometry x="60" y="360" width="120" height="80" as="geometry" />
        </mxCell>
        <mxCell id="CzoYS67WZs6YstitJpSj-16" value="fill in profile form (height, weight...)" style="ellipse;whiteSpace=wrap;html=1;" parent="CzoYS67WZs6YstitJpSj-10" vertex="1">
          <mxGeometry x="300" y="30" width="120" height="80" as="geometry" />
        </mxCell>
        <mxCell id="CzoYS67WZs6YstitJpSj-17" style="rounded=0;orthogonalLoop=1;jettySize=auto;html=1;entryX=0;entryY=0;entryDx=0;entryDy=0;" parent="CzoYS67WZs6YstitJpSj-10" source="CzoYS67WZs6YstitJpSj-19" target="CzoYS67WZs6YstitJpSj-27" edge="1">
          <mxGeometry relative="1" as="geometry" />
        </mxCell>
        <mxCell id="CzoYS67WZs6YstitJpSj-18" value="&amp;lt;&amp;lt;include&amp;gt;&amp;gt;" style="edgeLabel;html=1;align=center;verticalAlign=middle;resizable=0;points=[];" parent="CzoYS67WZs6YstitJpSj-17" connectable="0" vertex="1">
          <mxGeometry x="-0.2575" y="1" relative="1" as="geometry">
            <mxPoint as="offset" />
          </mxGeometry>
        </mxCell>
        <mxCell id="CzoYS67WZs6YstitJpSj-19" value="show most likely&lt;br&gt;diseases" style="ellipse;whiteSpace=wrap;html=1;" parent="CzoYS67WZs6YstitJpSj-10" vertex="1">
          <mxGeometry x="90" y="580" width="120" height="80" as="geometry" />
        </mxCell>
        <mxCell id="CzoYS67WZs6YstitJpSj-20" value="login to account" style="ellipse;whiteSpace=wrap;html=1;" parent="CzoYS67WZs6YstitJpSj-10" vertex="1">
          <mxGeometry x="180" y="110" width="120" height="80" as="geometry" />
        </mxCell>
        <mxCell id="CzoYS67WZs6YstitJpSj-21" value="read disease description" style="ellipse;whiteSpace=wrap;html=1;" parent="CzoYS67WZs6YstitJpSj-10" vertex="1">
          <mxGeometry x="240" y="320" width="120" height="80" as="geometry" />
        </mxCell>
        <mxCell id="CzoYS67WZs6YstitJpSj-22" value="&amp;lt;&amp;lt;include&amp;gt;&amp;gt;" style="rounded=0;orthogonalLoop=1;jettySize=auto;html=1;entryX=0.5;entryY=1;entryDx=0;entryDy=0;" parent="CzoYS67WZs6YstitJpSj-10" source="CzoYS67WZs6YstitJpSj-23" target="CzoYS67WZs6YstitJpSj-16" edge="1">
          <mxGeometry relative="1" as="geometry" />
        </mxCell>
        <mxCell id="CzoYS67WZs6YstitJpSj-23" value="use without login" style="ellipse;whiteSpace=wrap;html=1;" parent="CzoYS67WZs6YstitJpSj-10" vertex="1">
          <mxGeometry x="220" y="210" width="140" height="70" as="geometry" />
        </mxCell>
        <mxCell id="CzoYS67WZs6YstitJpSj-24" style="rounded=0;orthogonalLoop=1;jettySize=auto;html=1;entryX=1;entryY=0;entryDx=0;entryDy=0;" parent="CzoYS67WZs6YstitJpSj-10" source="CzoYS67WZs6YstitJpSj-26" target="CzoYS67WZs6YstitJpSj-27" edge="1">
          <mxGeometry relative="1" as="geometry" />
        </mxCell>
        <mxCell id="CzoYS67WZs6YstitJpSj-25" value="&amp;lt;&amp;lt;extend&amp;gt;&amp;gt;" style="edgeLabel;html=1;align=center;verticalAlign=middle;resizable=0;points=[];" parent="CzoYS67WZs6YstitJpSj-24" connectable="0" vertex="1">
          <mxGeometry x="0.125" y="3" relative="1" as="geometry">
            <mxPoint as="offset" />
          </mxGeometry>
        </mxCell>
        <mxCell id="CzoYS67WZs6YstitJpSj-26" value="show, who to visit" style="ellipse;whiteSpace=wrap;html=1;" parent="CzoYS67WZs6YstitJpSj-10" vertex="1">
          <mxGeometry x="310" y="550" width="140" height="70" as="geometry" />
        </mxCell>
        <mxCell id="CzoYS67WZs6YstitJpSj-27" value="how urgent should treatment be" style="ellipse;whiteSpace=wrap;html=1;" parent="CzoYS67WZs6YstitJpSj-10" vertex="1">
          <mxGeometry x="250" y="670" width="140" height="70" as="geometry" />
        </mxCell>
      </root>
    </mxGraphModel>
  </diagram>
</mxfile>
